<svg xmlns="http://www.w3.org/2000/svg" width="56.3" height="20.012" viewBox="0 0 56.3 20.012">
  <g id="Grupo_501" data-name="Grupo 501" transform="translate(-7.456 -7)">
    <path id="Caminho_51" data-name="Caminho 51" d="M4.032-14.112A2.586,2.586,0,0,1,2.016-14.9a2.784,2.784,0,0,1-.72-1.944,2.784,2.784,0,0,1,.72-1.944,2.586,2.586,0,0,1,2.016-.792,2.571,2.571,0,0,1,2,.792,2.784,2.784,0,0,1,.72,1.944,2.784,2.784,0,0,1-.72,1.944A2.571,2.571,0,0,1,4.032-14.112ZM6.708,0H1.32V-13.128H6.708Z" transform="translate(57 27)" fill="#005bd5"/>
    <path id="Caminho_52" data-name="Caminho 52" d="M6.384.012A5.6,5.6,0,0,1,1.968-1.8,7.032,7.032,0,0,1,.36-6.646,8.936,8.936,0,0,1,.69-9.087a6.016,6.016,0,0,1,1.038-2.079,4.976,4.976,0,0,1,1.824-1.443A6.208,6.208,0,0,1,6.24-13.14,4.364,4.364,0,0,1,9.72-11.6v-6.2h5.4V0H9.72V-1.361A4.431,4.431,0,0,1,6.384.012ZM7.776-4.14A1.671,1.671,0,0,0,9.24-4.82,2.848,2.848,0,0,0,9.72-6.5a2.847,2.847,0,0,0-.48-1.684,1.671,1.671,0,0,0-1.464-.68A1.737,1.737,0,0,0,6.33-8.2a2.667,2.667,0,0,0-.522,1.7A2.668,2.668,0,0,0,6.33-4.8,1.737,1.737,0,0,0,7.776-4.14Z" transform="translate(41 27)" fill="#005bd5"/>
    <path id="União_8" data-name="União 8" d="M649.453-1852.912l-.016.04v-.042a4.511,4.511,0,0,1-1.525-.485,4.513,4.513,0,0,1-1.524.485v.042l-.016-.04a5.917,5.917,0,0,1-.8.052,5,5,0,0,1-2.172-.5,4.115,4.115,0,0,1-1.74-1.631,5.278,5.278,0,0,1-.661-2.776V-1866h5.388v6.338q.093,2,1.524,2.06,1.431-.057,1.524-2.06V-1866h5.387v8.236a5.278,5.278,0,0,1-.66,2.776,4.117,4.117,0,0,1-1.741,1.631,4.994,4.994,0,0,1-2.172.5A5.925,5.925,0,0,1,649.453-1852.912Z" transform="translate(-614.816 1879.872)" fill="#005bd5"/>
    <path id="Caminho_50" data-name="Caminho 50" d="M9.468.012A9.235,9.235,0,0,1,2.934-2.374,7.884,7.884,0,0,1,.36-8.417a7.677,7.677,0,0,1,2.682-6.008A9.86,9.86,0,0,1,9.828-16.8a11.9,11.9,0,0,1,3.672.618,11.175,11.175,0,0,1,3.588,1.974L13.944-10.65A6.889,6.889,0,0,0,9.8-12.18,3.7,3.7,0,0,0,7.14-11.142,3.607,3.607,0,0,0,6.06-8.417,3.56,3.56,0,0,0,7.188-5.611a3.877,3.877,0,0,0,2.664,1,5.947,5.947,0,0,0,2.232-.576l.024-1.032H9.588V-9.84h7.188l.048,7.692A14.9,14.9,0,0,1,13-.5,13.841,13.841,0,0,1,9.468.012Z" transform="translate(7.096 27)" fill="#005bd5"/>
    <circle id="Elipse_10" data-name="Elipse 10" cx="3" cy="3" r="3" transform="translate(34.184 7)" fill="#005bd5"/>
    <circle id="Elipse_11" data-name="Elipse 11" cx="3" cy="3" r="3" transform="translate(26.184 7)" fill="#005bd5"/>
  </g>
</svg>
