<svg xmlns="http://www.w3.org/2000/svg" width="62.218" height="59.12" viewBox="0 0 62.218 59.12">
  <g id="Grupo_305" data-name="Grupo 305" transform="translate(-1680.256 -4841)">
    <path id="Caminho_168" data-name="Caminho 168" d="M368.786,361.743a.973.973,0,0,0-.745-1.156c-.611-.132-1.017-.186-1.034-.188h0a.972.972,0,0,0-.253,1.927s.351.047.877.161a.974.974,0,0,0,1.156-.745Z" transform="translate(1347.22 4520.649)" fill="#fff"/>
    <path id="Caminho_169" data-name="Caminho 169" d="M415.438,425.731a.971.971,0,0,0-1.314.4,9.7,9.7,0,0,1-1.1,1.609.972.972,0,1,0,1.5,1.24,11.6,11.6,0,0,0,1.326-1.939A.972.972,0,0,0,415.438,425.731Z" transform="translate(1305.546 4462.671)" fill="#fff"/>
    <path id="Caminho_170" data-name="Caminho 170" d="M369.979,471.485a.972.972,0,0,0,1.361.2c.621-.463,1.2-.92,1.735-1.358a.972.972,0,0,0-1.24-1.5c-.505.418-1.063.855-1.657,1.3h0A.972.972,0,0,0,369.979,471.485Z" transform="translate(1343.776 4424.458)" fill="#fff"/>
    <path id="Caminho_171" data-name="Caminho 171" d="M413.909,377.609a6.073,6.073,0,0,0-1.851-1.749.972.972,0,0,0-1.043,1.64,4.158,4.158,0,0,1,1.269,1.176.972.972,0,0,0,1.625-1.067Z" transform="translate(1307.528 4507.033)" fill="#fff"/>
    <path id="Caminho_172" data-name="Caminho 172" d="M331.285,505.091a.971.971,0,0,0,.516-.148q.424-.266.83-.526a.972.972,0,0,0-1.05-1.637q-.4.256-.813.516a.972.972,0,0,0,.517,1.8Z" transform="translate(1378.865 4394.218)" fill="#fff"/>
    <path id="Caminho_173" data-name="Caminho 173" d="M101.109-.008A31.139,31.139,0,0,0,70.029,30.021a1.014,1.014,0,0,1,.046-.112c-.012.184-.028.365-.036.55-.006-.023-.015-.045-.019-.068,0,.238-.02.471-.02.71,0,.17.007.339.01.508,0,.135-.01.268-.01.4a1.04,1.04,0,0,0,.022.214A30.851,30.851,0,0,0,75.6,48.866l13.309-3.932A59.043,59.043,0,0,0,94.62,43l-6.391-1.293a2.917,2.917,0,0,1,.422-5.77c6.032-.311,12.191-.1,13.878,0a.165.165,0,0,1,.049,0,.979.979,0,0,1-.467-.228l-9.255-8.2-2.2.792a.948.948,0,0,1-.656,0l-2.377-.851-2.377.851a.948.948,0,0,1-.656,0l-2.377-.851-2.372.851h0a.961.961,0,0,1-.661,0l-2.7-.972-4.439,3.3c.038-.874.118-1.737.228-2.59l12.473-9.275a.967.967,0,0,1,1.225.049L98.747,30.143l12.312-9.26a.972.972,0,0,1,1.133-.03l15.326,10.455h0a.974.974,0,0,1,.257,1.351.985.985,0,0,1-.807.423.935.935,0,0,1-.544-.17l-7.213-4.919-1.944.792a.971.971,0,0,1-.369.073.946.946,0,0,1-.365-.073l-2.017-.822-2.012.822a.973.973,0,0,1-.739,0l-2.008-.822-2.012.822h0a.96.96,0,0,1-.734,0l-2.09-.855-4.686,3.529,3.164,2.8a.976.976,0,0,1,.083,1.376.961.961,0,0,1-.676.321c9.24.564,20.638,2.372,26.817,7.558a30.739,30.739,0,0,0,2.566-11.262,1.067,1.067,0,0,0,.03-.24c0-.157-.01-.312-.012-.469s.012-.294.012-.443A31.143,31.143,0,0,0,101.11-.009Zm7.281,9.381a1.657,1.657,0,0,1-.51,1.317l-3.85,2.586.987,6.188L101.8,14.677l-3.777,2.173h0a1.972,1.972,0,0,1-.846,2l-2.712-4.044h0a1.967,1.967,0,0,1,1.1-.335,1.881,1.881,0,0,1,.369.034,2.03,2.03,0,0,1,.7.277l3.436-2.669L96.865,7.332l5.352,3.252L106.066,8h0a1,1,0,0,1,.564-.151,4.046,4.046,0,0,1,1.706.583,5.233,5.233,0,0,1,.054.943Z" transform="translate(1610.256 4841.009)" fill="#fff"/>
    <path id="Caminho_174" data-name="Caminho 174" d="M98.048,345.4a39.313,39.313,0,0,1-8.535,3.276L76.9,352.409l-6.149,1.818a.979.979,0,0,0-.534,1.464,1,1,0,0,0,1.088.4l18.757-5.541c1.868-.548,3.736-1.106,5.544-1.832,1.69-.679,3.879-1.512,5.048-2.966A2.612,2.612,0,0,0,101.1,345a3.527,3.527,0,0,1,.953.822c1.038,1.245-.717,2.784-1.6,3.5a26.643,26.643,0,0,1-3.416,2.18A87.214,87.214,0,0,1,79.8,358.683l-.339.109c-.457.145-1.122.235-1.429.641h0a.973.973,0,0,0,1.06,1.518c.01,0,.112-.034.3-.092.092-.029.19-.058.292-.092a119.852,119.852,0,0,0,13.249-4.982,43.748,43.748,0,0,0,7.625-4.2c1.646-1.187,3.81-2.815,3.736-5.1s-2.565-3.5-4.4-4.193a8.187,8.187,0,0,0-1.381-.715c1.8.034,3.184.092,3.845.131.214.015.428.024.641.039.029,0,.053,0,.082,0,1.653.1,3.3.214,4.919.428.029,0,.058,0,.082.01h0a28.468,28.468,0,0,1,5.595,1.259,20.206,20.206,0,0,1,6.314,3.213h0a9.221,9.221,0,0,1,1.516,1.565,5.119,5.119,0,0,1,.909,1.818c.671,2.605-1.157,5.711-5.434,9.226h0a.977.977,0,0,0-.131,1.371.988.988,0,0,0,1.366.131c4.914-4.039,6.96-7.811,6.085-11.214a6.345,6.345,0,0,0-.423-1.157,9.58,9.58,0,0,0-3.024-3.451,18.522,18.522,0,0,1,7.325,4.365c.122.131.238.267.35.4h0a8.066,8.066,0,0,1,.608.826c1.473,2.294,1.585,4.953.35,8.137a.974.974,0,0,0,1.813.7c1.453-3.752,1.279-7.077-.53-9.891-3.026-3.9-7.216-5.9-11.9-7.238a78.667,78.667,0,0,0-16.4-2.493c-1.653-.1-7.695-.3-13.62,0h0a1.025,1.025,0,0,0-.945.842c0,.026-.006.051-.007.076-.03.55.362.835.812,1.016l7.233,1.463c.69.161,1.312.321,1.876.486h0a.97.97,0,0,1,.233,1.759Z" transform="translate(1610.201 4539.127)" fill="#fff"/>
    <path id="Caminho_175" data-name="Caminho 175" d="M403.236,208.938a.972.972,0,0,1,.736,0l2.011.822,2.014-.822a.97.97,0,0,1,.735,0l2.015.822.385-.157-5.61-3.826-4.944,3.718.648.265Z" transform="translate(1316.406 4658.086)" fill="#fff"/>
    <path id="Caminho_176" data-name="Caminho 176" d="M145.17,192.5l1.156.416,2.375-.854a.973.973,0,0,1,.658,0l2.373.854,2.376-.854h0a.972.972,0,0,1,.657,0l2.378.854.871-.313-5.928-5.248Z" transform="translate(1543.438 4674.464)" fill="#fff"/>
  </g>
</svg>
