<svg xmlns="http://www.w3.org/2000/svg" width="45.691" height="59.12" viewBox="0 0 45.691 59.12">
  <path id="Caminho_240" data-name="Caminho 240" d="M178.576,5.541a1.212,1.212,0,0,0-1.725-.369l-9.607,5.542a1.232,1.232,0,0,0-.493.616L163.918,18.1a54.53,54.53,0,0,0-8.622-.616,52.649,52.649,0,0,0-7.267.493V12.315h11.824a13.078,13.078,0,0,0-26.111,0h11.824V18.1c-5.05.862-9.361,2.586-9.853,5.542A26,26,0,0,0,133,34.977c0,13.3,9.977,24.141,22.17,24.141s22.17-10.839,22.17-24.141a25.584,25.584,0,0,0-2.71-11.331c-.369-2.71-3.941-4.311-8.375-5.173l2.463-5.789,9.361-5.42a1.364,1.364,0,0,0,.493-1.724ZM155.3,21.06a42.089,42.089,0,0,1,7.267.493l-2.217,5.419c-1.6.123-3.2.123-5.05.123a42.088,42.088,0,0,1-7.267-.493v-5.3C150.124,21.183,152.464,21.06,155.3,21.06Zm-15.766,3.079c.493-.616,2.587-1.478,6.035-2.217v4.434C142.118,25.617,140.024,24.631,139.531,24.139Zm34.241,9.607A1.164,1.164,0,0,1,175,34.978c0,11.948-8.868,21.677-19.707,21.677a1.232,1.232,0,1,1,0-2.464c9.484,0,17.243-8.622,17.243-19.214a1.234,1.234,0,0,1,1.232-1.231Zm-2.71-9.607c-.616.739-3.326,1.847-8.006,2.586l1.971-4.8C168.476,22.538,170.569,23.523,171.062,24.139Z" transform="translate(-133.004 0.002)" fill="#005bd5"/>
</svg>
