<svg xmlns="http://www.w3.org/2000/svg" width="60.058" height="59.12" viewBox="0 0 60.058 59.12">
  <g id="Grupo_308" data-name="Grupo 308" transform="translate(-2199.107 -4841)">
    <path id="Caminho_248" data-name="Caminho 248" d="M217.507,292.5a3.754,3.754,0,1,1-3.754-3.754,3.754,3.754,0,0,1,3.754,3.754" transform="translate(2004.122 4582.279)" fill="#005bd5"/>
    <path id="Caminho_249" data-name="Caminho 249" d="M73.754,378.127h.938v4.692H70v13.138h1.877V394.08h2.815v1.877h1.877v-17.83h.938V376.25H73.754Z" transform="translate(2129.107 4504.164)" fill="#005bd5"/>
    <path id="Caminho_250" data-name="Caminho 250" d="M488.757,29.4s7.507-6.494,7.507-12.2-3.359-8.446-7.507-8.446-7.507,2.74-7.507,8.446S488.757,29.4,488.757,29.4ZM485,16.257a3.754,3.754,0,1,1,3.754,3.754A3.753,3.753,0,0,1,485,16.257Z" transform="translate(1761.963 4832.25)" fill="#005bd5"/>
    <path id="Caminho_251" data-name="Caminho 251" d="M401.257,358.75c-4.148,0-7.507,2.74-7.507,8.446s7.507,12.2,7.507,12.2,7.507-6.494,7.507-12.2S405.405,358.75,401.257,358.75Zm0,11.261a3.754,3.754,0,1,1,3.754-3.754A3.753,3.753,0,0,1,401.257,370.011Z" transform="translate(1840.079 4519.786)" fill="#005bd5"/>
    <path id="Caminho_252" data-name="Caminho 252" d="M86.257,29.4s7.507-6.494,7.507-12.2S90.405,8.75,86.257,8.75,78.75,11.49,78.75,17.2,86.257,29.4,86.257,29.4ZM82.5,16.257a3.754,3.754,0,1,1,3.754,3.754A3.753,3.753,0,0,1,82.5,16.257Z" transform="translate(2121.296 4832.25)" fill="#005bd5"/>
    <path id="Caminho_253" data-name="Caminho 253" d="M306.25,96.25h1.877v1.877H306.25Z" transform="translate(1918.194 4754.134)" fill="#005bd5"/>
    <path id="Caminho_254" data-name="Caminho 254" d="M376.25,96.25h1.877v1.877H376.25Z" transform="translate(1855.702 4754.134)" fill="#005bd5"/>
    <path id="Caminho_255" data-name="Caminho 255" d="M236.25,96.25h1.877v1.877H236.25Z" transform="translate(1980.687 4754.134)" fill="#005bd5"/>
    <path id="Caminho_256" data-name="Caminho 256" d="M271.25,96.25h1.877v1.877H271.25Z" transform="translate(1949.441 4754.134)" fill="#005bd5"/>
    <path id="Caminho_257" data-name="Caminho 257" d="M341.25,96.25h1.877v1.877H341.25Z" transform="translate(1886.948 4754.134)" fill="#005bd5"/>
    <path id="Caminho_258" data-name="Caminho 258" d="M411.25,96.25h1.877v1.877H411.25Z" transform="translate(1824.455 4754.134)" fill="#005bd5"/>
    <path id="Caminho_259" data-name="Caminho 259" d="M446.25,96.25h1.877v1.877H446.25Z" transform="translate(1793.209 4754.134)" fill="#005bd5"/>
    <path id="Caminho_260" data-name="Caminho 260" d="M505.861,255.969l.354-1.844a14.161,14.161,0,0,0-2-.235l-.087,1.875a12.144,12.144,0,0,1,1.728.2Z" transform="translate(1741.534 4613.401)" fill="#005bd5"/>
    <path id="Caminho_261" data-name="Caminho 261" d="M588.15,304.98a12.255,12.255,0,0,1,.978,1.44l1.624-.94a14.08,14.08,0,0,0-1.129-1.662Z" transform="translate(1666.527 4568.827)" fill="#005bd5"/>
    <path id="Caminho_262" data-name="Caminho 262" d="M606.722,338.1a14.044,14.044,0,0,0-.613-1.915l-1.741.7a12.1,12.1,0,0,1,.53,1.659Z" transform="translate(1652.049 4539.936)" fill="#005bd5"/>
    <path id="Caminho_263" data-name="Caminho 263" d="M294.54,253.75h1.877v1.877H294.54Z" transform="translate(1928.649 4613.526)" fill="#005bd5"/>
    <path id="Caminho_264" data-name="Caminho 264" d="M399.54,253.75h1.877v1.877H399.54Z" transform="translate(1834.91 4613.526)" fill="#005bd5"/>
    <path id="Caminho_265" data-name="Caminho 265" d="M364.54,253.75h1.877v1.877H364.54Z" transform="translate(1866.156 4613.526)" fill="#005bd5"/>
    <path id="Caminho_266" data-name="Caminho 266" d="M434.54,253.75h1.877v1.877H434.54Z" transform="translate(1803.663 4613.526)" fill="#005bd5"/>
    <path id="Caminho_267" data-name="Caminho 267" d="M329.54,253.75h1.877v1.877H329.54Z" transform="translate(1897.402 4613.526)" fill="#005bd5"/>
    <path id="Caminho_268" data-name="Caminho 268" d="M469.54,253.75h1.877v1.877H469.54Z" transform="translate(1772.417 4613.526)" fill="#005bd5"/>
    <path id="Caminho_269" data-name="Caminho 269" d="M538.4,261.716a14.039,14.039,0,0,0-1.848-.791l-.612,1.775a12.147,12.147,0,0,1,1.6.684Z" transform="translate(1713.141 4607.12)" fill="#005bd5"/>
    <path id="Caminho_270" data-name="Caminho 270" d="M569.08,464.662l1.161,1.473a13.95,13.95,0,0,0,1.485-1.352l-1.359-1.294A12.394,12.394,0,0,1,569.08,464.662Z" transform="translate(1683.552 4426.279)" fill="#005bd5"/>
    <path id="Caminho_271" data-name="Caminho 271" d="M591.43,438.586l1.529,1.088a14.113,14.113,0,0,0,1.046-1.713l-1.667-.861a12.371,12.371,0,0,1-.908,1.486Z" transform="translate(1663.599 4449.839)" fill="#005bd5"/>
    <path id="Caminho_272" data-name="Caminho 272" d="M259.54,253.75h1.877v1.877H259.54Z" transform="translate(1959.895 4613.526)" fill="#005bd5"/>
    <path id="Caminho_273" data-name="Caminho 273" d="M613.856,372.5l-1.869.176c.036.383.054.772.054,1.164,0,.194,0,.387-.014.578l1.875.088q.016-.331.016-.667c0-.45-.021-.9-.063-1.34Z" transform="translate(1645.246 4507.511)" fill="#005bd5"/>
    <path id="Caminho_274" data-name="Caminho 274" d="M606.28,408.195l1.775.612a14.037,14.037,0,0,0,.518-1.941l-1.843-.354A12.289,12.289,0,0,1,606.28,408.195Z" transform="translate(1650.342 4477.147)" fill="#005bd5"/>
    <path id="Caminho_275" data-name="Caminho 275" d="M541.05,484.287l.7,1.743a13.963,13.963,0,0,0,1.806-.88l-.939-1.623a11.992,11.992,0,0,1-1.564.761Z" transform="translate(1708.576 4408.393)" fill="#005bd5"/>
    <path id="Caminho_276" data-name="Caminho 276" d="M567.337,279.347a14.255,14.255,0,0,0-1.548-1.277L564.7,279.6a12.363,12.363,0,0,1,1.343,1.109Z" transform="translate(1687.462 4591.813)" fill="#005bd5"/>
    <path id="Caminho_277" data-name="Caminho 277" d="M87.5,181.84l0,.2a9.426,9.426,0,0,0,.186,1.869l1.839-.372a7.607,7.607,0,0,1-.148-1.5v-.163Z" transform="translate(2113.484 4677.724)" fill="#005bd5"/>
    <path id="Caminho_278" data-name="Caminho 278" d="M189.54,253.75h1.877v1.877H189.54Z" transform="translate(2022.388 4613.526)" fill="#005bd5"/>
    <path id="Caminho_279" data-name="Caminho 279" d="M97.736,213.907a7.46,7.46,0,0,1-.847-1.431l-1.712.77a9.374,9.374,0,0,0,1.059,1.79Z" transform="translate(2106.631 4650.373)" fill="#005bd5"/>
    <path id="Caminho_280" data-name="Caminho 280" d="M224.54,253.75h1.877v1.877H224.54Z" transform="translate(1991.141 4613.526)" fill="#005bd5"/>
    <path id="Caminho_281" data-name="Caminho 281" d="M152.54,253.23a9.414,9.414,0,0,0,2.058.306l.07-1.875a7.442,7.442,0,0,1-1.646-.246Z" transform="translate(2055.419 4615.61)" fill="#005bd5"/>
    <path id="Caminho_282" data-name="Caminho 282" d="M118.35,238.555a9.456,9.456,0,0,0,1.725,1.164l.871-1.662a7.413,7.413,0,0,1-1.379-.931Z" transform="translate(2085.943 4628.366)" fill="#005bd5"/>
    <path id="Caminho_283" data-name="Caminho 283" d="M315,498.75h1.877v1.877H315Z" transform="translate(1910.383 4394.801)" fill="#005bd5"/>
    <path id="Caminho_284" data-name="Caminho 284" d="M350,498.75h1.877v1.877H350Z" transform="translate(1879.137 4394.801)" fill="#005bd5"/>
    <path id="Caminho_285" data-name="Caminho 285" d="M385,498.75h1.877v1.877H385Z" transform="translate(1847.89 4394.801)" fill="#005bd5"/>
    <path id="Caminho_286" data-name="Caminho 286" d="M174.087,317.815,171.272,315l-4.692,4.692H152.5a3.754,3.754,0,0,0-3.754,3.754v8.446H152.5v-7.507h1.877v16.891h3.754V330.953h1.877v10.323h3.754V324.384h3.754Z" transform="translate(2058.803 4558.844)" fill="#005bd5"/>
  </g>
</svg>
