<svg id="Grupo_463" data-name="Grupo 463" xmlns="http://www.w3.org/2000/svg" width="59" height="59.12" viewBox="0 0 59 59.12">
  <path id="Caminho_425" data-name="Caminho 425" d="M107.984,509.618H150.8l.529-2.118H107.455Z" transform="translate(-107.455 -450.498)" fill="#fff"/>
  <path id="Caminho_426" data-name="Caminho 426" d="M273.368,299.618c.711,0,1.413.041,2.107.106,0-.036.01-.071.01-.106a2.118,2.118,0,1,0-4.236,0c0,.036.009.071.01.106.695-.065,1.4-.106,2.107-.106Z" transform="translate(-251.428 -265.911)" fill="#fff"/>
  <path id="Caminho_427" data-name="Caminho 427" d="M420.611,36.469l-19.191,3h19.191Z" transform="translate(-365.845 -36.469)" fill="#fff"/>
  <path id="Caminho_428" data-name="Caminho 428" d="M474.639,134.885l1.5-1.5a3.177,3.177,0,1,0-4.492-4.492l-1.5,1.5a3.177,3.177,0,1,0,4.492,4.492Z" transform="translate(-425.402 -116.858)" fill="#fff"/>
  <path id="Caminho_429" data-name="Caminho 429" d="M143.01,332.5a20.126,20.126,0,0,0-20.065,19.06h40.131a20.126,20.126,0,0,0-20.067-19.06Zm-15.384,16.148-2.05-.529h0a17.951,17.951,0,0,1,.741-2.25l1.963.794a15.766,15.766,0,0,0-.655,1.985Zm19.354-11.413a15.915,15.915,0,0,0-17.73,7.442l-1.833-1.059a18.028,18.028,0,0,1,20.092-8.433Z" transform="translate(-121.07 -296.673)" fill="#fff"/>
  <path id="Caminho_430" data-name="Caminho 430" d="M297.5,78.75v24.5a4.235,4.235,0,0,1,3.177,4.085c0,.138-.03.272-.043.41a22.249,22.249,0,0,1,17.989,20.768h1.113a1.059,1.059,0,0,1,1.027,1.316l-.73,2.92H333.5v-54Zm28.59,41.3h-6.353v-2.118h6.353Zm0-4.236h-9.53v-2.118h9.53Zm0-4.236H312.324v-2.118H326.09Zm.641-6.438-1.5,1.5L315.5,96.9l-9.733,9.733-1.5-1.5L314,95.4l-3.071-3.071a5.294,5.294,0,0,1-6.663-.674l-3-2.995,1.5-1.5,3,2.995a3.176,3.176,0,0,0,3.605.611l-5.1-5.1,1.5-1.5,5.1,5.1a3.176,3.176,0,0,0-.611-3.6l-2.995-3,1.5-1.5,2.995,3h0a5.295,5.295,0,0,1,.674,6.663l3.071,3.071,1.574-1.574a5.295,5.295,0,0,1,.673-6.663l1.5-1.5a5.294,5.294,0,0,1,7.486,7.486l-1.5,1.5h0a5.3,5.3,0,0,1-6.663.673L317,95.41Zm3.594,14.909h-2.118v-2.118h2.118Zm0-4.236h-2.118v-2.118h2.118Zm0-4.236h-2.118v-2.118h2.118Z" transform="translate(-274.501 -73.633)" fill="#fff"/>
</svg>
